<svg xmlns="http://www.w3.org/2000/svg" version="1.1" xmlns:xlink="http://www.w3.org/1999/xlink" xmlns:svgjs="http://svgjs.dev/svgjs" width="4000" height="700" preserveAspectRatio="none" viewBox="0 0 4000 700"><g mask="url(&quot;#SvgjsMask1055&quot;)" fill="none"><rect width="4000" height="700" x="0" y="0" fill="rgba(30, 161, 86, 1)"></rect><path d="M0,1271.338C235.045,1270.532,436.614,1110.348,615.875,958.321C778.341,820.537,856.967,622.73,974.383,444.986C1117.013,229.073,1391.804,60.086,1380.005,-198.415C1368.294,-454.984,1114.058,-629.615,917.772,-795.254C744.379,-941.575,529.738,-1004.041,320.729,-1092.302C81.848,-1193.177,-143.558,-1407.495,-396.464,-1350.234C-649.48,-1292.948,-782.273,-1019.589,-932.994,-808.444C-1071.172,-614.871,-1229.519,-415.172,-1233.681,-177.377C-1237.693,51.844,-1063.64,234.272,-954.775,436.031C-853.85,623.075,-778.557,822.611,-618.597,962.556C-441.561,1117.44,-235.224,1272.145,0,1271.338" fill="#188145"></path><path d="M4000 2338.08C4309.08 2387.072 4627.403 2253.9120000000003 4879.349 2068.294 5123.277 1888.584 5261.927 1608.888 5372.594 1326.8429999999998 5478.517 1056.8890000000001 5562.005 767.684 5500.903 484.203 5441.6630000000005 209.361 5244.1990000000005-7.423999999999978 5042.732-203.53200000000004 4854.553-386.7059999999999 4622.966-497.58899999999994 4382.906-604.056 4107.63-726.142 3819.892-978.6769999999999 3538.858-870.5039999999999 3253.661-760.7280000000001 3245.43-355.0340000000001 3075.71-100.90099999999995 2933.183 112.51300000000003 2692.636 255.11200000000002 2622.301 501.91700000000003 2547.2470000000003 765.28 2551.925 1060.474 2675.027 1305.095 2796.441 1546.3609999999999 3070.234 1649.231 3283.242 1815.298 3521.279 2000.878 3701.891 2290.827 4000 2338.08" fill="#24c167"></path></g><defs><mask id="SvgjsMask1055"><rect width="4000" height="700" fill="#ffffff"></rect></mask></defs></svg>